<?xml version="1.0" standalone="no"?>
<!DOCTYPE svg PUBLIC "-//W3C//DTD SVG 20010904//EN"
 "http://www.w3.org/TR/2001/REC-SVG-20010904/DTD/svg10.dtd">
<svg version="1.0" xmlns="http://www.w3.org/2000/svg"
 width="600.000000pt" height="600.000000pt" viewBox="0 0 600.000000 600.000000"
 preserveAspectRatio="xMidYMid meet">
<g transform="translate(0.000000,600.000000) scale(0.100000,-0.100000)"
fill="#000000" stroke="none">
<path d="M1252 4020 l-22 -9 2 -765 c2 -501 7 -769 13 -775 16 -16 434 -19
463 -3 21 12 22 17 22 185 0 95 4 177 8 183 4 7 57 14 127 18 131 6 198 22
288 68 57 28 147 108 179 158 12 19 17 21 21 10 52 -177 91 -251 192 -355 75
-77 203 -168 265 -186 61 -19 80 -2 80 72 0 75 -10 94 -63 119 -64 30 -162
109 -202 163 -72 94 -114 227 -115 353 0 76 31 199 67 267 39 73 165 196 240
235 229 120 504 84 684 -90 117 -113 177 -254 178 -418 1 -108 -18 -183 -69
-270 -22 -38 -40 -73 -40 -79 0 -6 -7 -11 -16 -11 -21 0 -84 63 -84 84 0 9 15
46 34 83 61 120 69 214 27 336 -26 75 -59 124 -124 183 -175 161 -443 164
-616 8 -123 -111 -176 -277 -141 -441 25 -116 126 -243 235 -294 33 -16 65
-29 72 -29 6 0 21 -12 32 -26 20 -25 21 -39 21 -235 l0 -208 30 -16 c30 -16
69 -19 107 -9 37 10 45 57 41 257 -4 218 -1 224 86 249 l56 15 40 -39 39 -39
-47 -30 c-25 -16 -50 -29 -54 -29 -11 0 -10 -141 1 -159 6 -10 20 -12 46 -8
32 5 57 18 149 76 21 13 26 11 71 -32 29 -29 57 -47 71 -47 27 0 114 78 114
101 0 8 -20 35 -45 59 -25 24 -45 49 -45 55 0 6 20 37 45 70 25 33 56 84 70
113 29 62 65 185 65 224 0 47 14 31 36 -40 12 -37 46 -146 76 -242 31 -96 70
-223 88 -282 19 -60 40 -114 49 -122 13 -12 62 -15 234 -17 205 -3 218 -2 237
16 19 20 59 147 271 875 67 228 179 633 179 645 0 28 -53 35 -259 35 -156 0
-212 -3 -225 -13 -13 -10 -40 -95 -91 -288 -40 -151 -80 -298 -89 -328 -20
-67 -20 -78 -1 -78 10 0 15 11 16 29 2 36 3 41 12 56 5 6 5 17 2 22 -3 6 -1
10 5 10 6 0 10 6 8 13 -4 20 23 117 33 117 5 0 9 7 9 16 0 8 4 13 10 9 5 -3 5
7 -2 25 -5 17 -8 34 -4 37 3 4 6 0 6 -8 0 -11 2 -11 10 1 12 18 13 33 2 26 -4
-2 -6 11 -4 30 2 18 8 32 12 29 4 -2 7 8 8 23 0 15 10 56 21 92 12 36 21 74
21 86 0 11 9 29 20 39 11 10 18 21 15 25 -2 4 36 7 84 6 49 -1 87 -4 86 -7 -2
-3 33 -6 78 -6 69 0 75 1 37 7 -35 6 -25 7 47 6 50 0 89 -4 87 -8 -3 -5 0 -8
5 -8 6 0 11 -8 11 -17 0 -16 -2 -16 -11 -3 -8 12 -9 10 -4 -9 5 -15 2 -27 -6
-32 -11 -7 -11 -9 -1 -9 9 0 10 -5 3 -17 -5 -10 -12 -39 -16 -65 -4 -27 -12
-48 -17 -48 -6 0 -8 -11 -6 -25 3 -13 1 -22 -4 -19 -5 3 -6 -7 -3 -23 5 -22 4
-25 -4 -13 -9 13 -11 12 -9 -5 4 -31 -13 -105 -23 -105 -5 0 -9 -10 -9 -22 0
-38 -12 -68 -23 -61 -5 3 -7 2 -4 -4 8 -13 -14 -123 -25 -123 -4 0 -4 -7 -1
-17 5 -12 3 -14 -7 -8 -8 5 -11 4 -7 -2 7 -11 -14 -90 -39 -153 -8 -19 -17
-49 -19 -65 -2 -17 -4 -32 -4 -35 -1 -3 -5 2 -11 10 -6 10 -8 -1 -6 -33 2 -26
0 -47 -5 -47 -5 0 -9 -10 -9 -23 0 -12 -9 -41 -20 -62 -11 -22 -21 -54 -22
-72 -1 -18 -7 -34 -15 -37 -7 -3 -13 -11 -13 -18 0 -9 3 -9 11 2 9 12 10 12 5
-3 -3 -10 -6 -21 -6 -23 0 -3 -5 -2 -10 1 -6 4 -9 3 -8 -2 1 -4 -2 -30 -6 -57
-6 -37 -10 -46 -17 -35 -7 10 -8 3 -4 -20 5 -24 4 -32 -5 -26 -7 4 -11 1 -9
-6 5 -38 -2 -80 -12 -73 -6 3 -10 -1 -9 -12 1 -11 2 -28 1 -39 -1 -17 -3 -18
-12 -5 -9 12 -10 12 -5 -3 13 -42 -10 -46 -227 -46 -142 1 -211 5 -222 13 -18
13 -66 171 -58 192 3 8 -1 14 -11 14 -10 0 -16 8 -16 22 0 12 -12 60 -27 107
-15 48 -27 93 -28 101 0 8 -4 21 -8 28 -5 6 -5 17 -1 24 4 7 3 8 -4 4 -8 -5
-12 2 -12 18 0 14 -5 26 -12 26 -6 0 -9 3 -6 6 3 3 -3 30 -14 61 -10 31 -17
62 -14 69 3 9 0 11 -12 7 -14 -6 -15 -4 -5 9 11 13 9 15 -17 16 -26 1 -31 -4
-39 -35 -6 -20 -7 -41 -4 -46 3 -6 1 -7 -6 -3 -9 6 -10 0 -5 -21 4 -19 3 -25
-4 -18 -5 6 -12 19 -15 30 -2 11 -5 -2 -5 -30 -2 -70 -5 -94 -13 -89 -4 2 -10
-3 -13 -12 -3 -9 -2 -12 5 -8 6 3 5 -3 -2 -14 -7 -12 -17 -19 -21 -16 -4 3 -5
-2 -2 -10 8 -20 -22 -50 -42 -42 -10 4 -13 2 -7 -7 11 -18 12 -37 2 -37 -5 0
-14 -11 -21 -25 -6 -13 -14 -23 -17 -21 -3 2 -7 -11 -8 -30 -2 -21 2 -34 9
-34 6 0 8 -3 5 -7 -4 -3 2 -12 13 -20 11 -8 17 -20 14 -31 -4 -12 -3 -13 3 -4
7 10 13 8 26 -6 16 -17 16 -21 2 -32 -8 -7 -12 -17 -8 -23 3 -6 1 -7 -5 -3 -6
3 -16 -3 -22 -14 -13 -23 -80 -29 -80 -7 0 7 -7 22 -16 33 -14 18 -14 18 -3
-6 10 -22 8 -21 -24 9 -34 32 -36 33 -70 20 -20 -7 -34 -16 -31 -21 8 -12 -10
-10 -23 3 -8 8 -13 7 -18 -2 -5 -8 -4 -10 3 -5 7 4 12 2 12 -4 0 -7 -9 -14
-20 -17 -11 -3 -20 -10 -20 -16 0 -6 -3 -7 -6 -4 -4 3 -15 2 -25 -3 -12 -7
-20 -7 -24 0 -4 6 -11 8 -16 5 -5 -4 -9 3 -9 14 0 12 5 21 11 21 8 0 8 4 2 13
-15 19 -12 47 6 48 10 0 12 2 4 6 -7 2 -13 9 -13 15 0 6 7 7 16 4 8 -3 12 -2
9 4 -3 6 -2 10 3 10 4 0 18 9 30 21 12 11 26 18 31 15 4 -3 6 7 4 22 -3 24 -2
25 7 7 l10 -20 -3 20 c-2 13 -9 19 -21 17 -11 -2 -15 1 -11 7 3 6 1 11 -5 11
-7 0 -9 7 -6 16 3 8 2 12 -4 9 -10 -6 -50 15 -50 28 0 4 5 5 12 1 7 -5 8 -3 3
5 -5 9 -10 10 -18 2 -14 -14 -30 -15 -22 -1 3 5 -7 3 -22 -5 -15 -8 -38 -15
-51 -15 -13 0 -20 -4 -17 -10 3 -5 -1 -10 -9 -10 -8 0 -24 -12 -36 -27 -22
-27 -22 -34 -17 -220 5 -176 4 -191 -11 -186 -12 3 -14 2 -4 -4 7 -6 10 -17 6
-27 -5 -14 -9 -15 -15 -4 -7 10 -9 10 -9 -2 0 -13 -9 -15 -47 -10 l-48 5 1
222 c0 122 -2 221 -6 220 -3 -1 -16 8 -30 21 -13 12 -30 20 -38 17 -7 -2 -11
-1 -8 4 3 5 -12 16 -33 25 -22 8 -42 20 -46 26 -3 6 -11 8 -16 5 -12 -8 -69
33 -66 48 1 7 -4 11 -10 9 -7 -1 -13 2 -13 7 0 5 6 12 13 15 6 3 2 3 -10 0
-16 -3 -23 1 -28 16 -3 11 -11 20 -16 20 -6 0 -8 4 -5 8 3 5 -6 21 -20 37 -14
16 -22 35 -20 42 3 7 1 15 -5 19 -5 3 -7 15 -3 26 3 11 2 18 -2 15 -14 -8 -16
85 -4 160 11 70 38 143 52 143 4 0 8 7 8 16 0 8 4 12 10 9 6 -3 7 1 4 9 -3 9
-2 16 4 16 6 0 12 -6 15 -12 3 -7 4 -3 4 9 -1 12 -5 19 -11 16 -5 -4 -6 -1 -2
6 5 7 14 10 22 7 8 -3 11 0 7 10 -3 9 6 19 27 27 17 8 32 18 33 23 1 5 11 8
22 7 12 -1 14 1 6 4 -8 3 4 11 30 20 24 8 58 21 75 28 76 35 321 11 297 -29
-4 -6 2 -4 12 4 10 8 16 10 12 4 -3 -6 9 -16 29 -23 18 -7 34 -17 34 -22 0 -5
12 -14 26 -19 14 -6 22 -14 19 -20 -3 -5 -2 -10 2 -10 5 0 18 -7 29 -16 10 -8
12 -12 4 -8 -8 4 -4 -3 8 -16 16 -15 22 -30 19 -45 -2 -15 0 -22 8 -19 6 3 16
-6 22 -18 14 -29 41 -148 33 -143 -4 2 -7 -27 -7 -66 0 -50 -5 -74 -17 -88 -9
-10 -14 -25 -10 -35 3 -9 2 -16 -4 -16 -6 0 -13 6 -15 13 -3 6 -4 -3 -2 -20 2
-19 -1 -32 -7 -30 -6 1 -14 -11 -19 -27 -6 -22 -4 -38 10 -60 10 -17 16 -38
14 -46 -4 -13 -3 -13 6 0 9 13 15 8 12 -12 0 -4 7 -7 17 -7 9 1 27 -2 40 -6
14 -5 22 -3 22 4 0 7 4 10 9 6 5 -3 12 -1 16 5 3 5 0 10 -7 10 -9 1 -7 4 3 10
9 5 20 21 23 35 4 14 11 23 16 20 9 -6 14 8 11 30 -1 6 8 -1 19 -15 l21 -25
-15 32 c-19 37 -20 47 -6 38 6 -4 9 -3 8 2 -1 4 6 32 16 62 27 78 26 232 -2
330 -12 41 -27 78 -33 82 -6 4 -8 12 -5 18 4 6 3 11 -2 11 -6 0 -19 20 -31 45
-12 25 -24 45 -27 45 -3 0 -2 -5 2 -12 5 -7 3 -8 -5 -4 -7 5 -10 14 -7 22 3 7
0 16 -6 20 -7 5 -8 2 -3 -6 5 -9 4 -11 -4 -6 -6 4 -9 11 -6 16 6 9 -16 29 -30
27 -5 -1 -10 7 -10 18 0 12 -6 19 -14 17 -16 -3 -43 17 -36 28 3 5 -4 6 -15 3
-14 -4 -20 0 -20 11 0 9 -6 16 -13 16 -7 0 -39 14 -71 30 -31 17 -61 28 -66
25 -5 -3 -10 0 -12 6 -3 8 -48 14 -135 17 -105 4 -140 1 -181 -12 -29 -10 -57
-14 -63 -10 -7 4 -9 3 -5 -4 8 -13 -29 -26 -45 -16 -8 4 -9 3 -5 -4 4 -7 2
-12 -4 -12 -6 0 -18 -6 -25 -12 -34 -31 -43 -36 -49 -31 -3 3 -20 -8 -38 -26
-17 -17 -38 -31 -45 -31 -7 0 -13 -4 -13 -9 0 -5 -15 -26 -34 -46 -19 -20 -35
-38 -35 -41 -1 -2 -1 -7 -1 -10 0 -4 -8 0 -17 7 -16 13 -17 12 -5 -3 12 -15
11 -21 -6 -45 -10 -15 -17 -34 -14 -42 2 -8 0 -11 -5 -8 -6 4 -13 -6 -16 -21
-3 -15 -11 -40 -18 -57 -34 -85 -27 -294 12 -372 10 -20 19 -46 19 -56 0 -10
4 -16 9 -12 5 3 11 -7 13 -22 2 -16 8 -27 13 -26 6 1 12 -7 12 -18 1 -12 -3
-17 -9 -13 -7 4 -8 2 -4 -5 4 -6 11 -9 16 -6 10 6 62 -34 55 -45 -5 -8 23 -36
34 -34 12 3 60 -44 53 -51 -4 -5 1 -5 11 -2 9 4 17 2 17 -3 0 -6 9 -10 20 -10
11 0 19 -5 18 -11 -2 -6 8 -13 20 -14 24 -2 45 -23 36 -36 -2 -4 0 -10 4 -13
14 -8 7 -87 -8 -96 -21 -13 -86 23 -74 42 3 4 -2 5 -11 1 -13 -5 -14 -7 -3
-14 10 -7 10 -9 0 -9 -7 0 -15 7 -18 15 -4 8 -10 12 -15 9 -5 -3 -12 2 -15 10
-3 9 -11 16 -16 16 -18 0 -68 41 -63 51 4 5 0 6 -8 4 -16 -7 -81 61 -72 75 4
6 -1 7 -11 3 -14 -5 -16 -3 -11 11 4 10 3 15 -3 11 -6 -3 -10 -1 -10 5 0 6
-13 23 -28 38 -16 15 -26 34 -24 41 3 8 0 11 -7 7 -7 -5 -9 -1 -4 11 3 10 3
15 -2 11 -16 -15 -77 150 -67 185 1 4 -7 7 -17 7 -11 0 -21 5 -23 11 -4 13
-78 -52 -78 -69 0 -6 -5 -14 -12 -18 -7 -5 -8 -3 -3 6 5 9 4 11 -4 6 -6 -4 -9
-11 -6 -16 12 -19 -118 -93 -148 -85 -15 4 -18 3 -9 -3 33 -23 -124 -55 -268
-55 -62 0 -78 -4 -92 -20 -19 -21 -33 -95 -25 -127 3 -11 2 -20 -3 -20 -4 0
-7 -11 -6 -24 0 -13 4 -22 7 -20 3 2 6 -35 6 -82 0 -73 -3 -86 -19 -95 -29
-16 -400 -13 -410 3 -6 10 -8 10 -8 -1 0 -8 -3 -12 -6 -8 -3 3 -8 344 -10 757
-4 588 -2 750 7 744 9 -5 10 -2 6 9 -5 14 -3 15 14 4 16 -9 21 -9 27 1 6 9 41
11 138 8 71 -3 136 -6 144 -6 8 -1 76 -1 150 1 149 2 211 -3 314 -29 55 -13
64 -18 45 -23 -20 -6 -18 -7 12 -8 20 -1 42 -8 49 -16 7 -8 21 -15 31 -15 20
0 119 -94 119 -114 0 -7 11 -22 25 -34 14 -13 23 -27 20 -32 -3 -6 1 -10 9
-10 10 0 13 -6 9 -17 -4 -10 -2 -14 4 -10 10 6 27 -27 24 -46 -1 -5 3 -6 9 -2
8 5 14 -5 12 -25 0 -3 8 -6 18 -6 10 0 17 3 15 6 -2 4 4 14 13 23 28 26 42 45
42 57 0 6 5 8 10 5 6 -3 10 0 10 7 0 8 18 28 41 45 22 17 40 35 41 40 0 4 4 7
10 5 5 -1 7 2 3 8 -3 5 -2 10 2 10 5 0 24 14 42 31 18 16 40 28 48 25 8 -3 12
-2 9 3 -6 9 36 31 60 31 9 0 12 5 8 12 -4 7 -3 8 5 4 6 -4 18 -3 25 4 8 6 27
8 43 5 19 -3 22 -3 10 3 -15 6 -8 10 30 20 26 7 65 13 86 14 20 1 37 4 37 8 0
10 147 3 168 -9 25 -14 35 -14 27 -1 -6 10 89 -14 117 -30 10 -6 25 -10 34
-10 10 0 32 -11 51 -26 18 -14 37 -23 42 -19 16 9 25 -16 10 -27 -10 -7 -8 -8
7 -3 13 3 26 -1 34 -10 7 -8 18 -15 24 -15 6 0 24 -16 40 -35 16 -19 33 -32
37 -29 5 2 18 -5 29 -16 21 -21 22 -21 39 -3 17 17 17 21 0 85 -10 37 -23 76
-28 87 -6 11 -8 27 -4 37 4 12 3 15 -5 10 -7 -4 -12 -1 -12 8 0 9 7 16 16 16
8 0 13 3 11 8 -3 4 10 7 28 7 18 0 31 -4 27 -9 -3 -6 2 -6 14 -1 19 9 309 13
352 5 12 -2 22 -10 22 -18 0 -7 5 -10 12 -6 8 5 9 0 6 -14 -4 -12 -3 -20 2
-17 4 3 10 -8 13 -23 2 -15 12 -55 21 -90 10 -34 14 -67 10 -74 -4 -6 -3 -8 3
-5 6 4 13 -3 17 -16 9 -33 7 -39 -6 -31 -7 4 -4 -2 6 -15 11 -12 20 -37 20
-56 1 -19 4 -35 7 -35 4 0 12 -29 19 -65 7 -36 17 -68 22 -71 6 -4 5 -10 -3
-15 -10 -6 -10 -9 -2 -9 7 0 10 -7 7 -15 -4 -8 -2 -15 4 -15 6 0 13 -18 17
-40 4 -25 12 -40 21 -40 8 0 14 -5 14 -12 0 -6 2 -9 5 -7 2 3 -9 50 -24 104
-16 55 -48 172 -71 260 -48 186 -86 314 -100 335 -8 12 -47 16 -227 18 -221 4
-267 -2 -279 -33 -3 -8 8 -61 25 -116 44 -145 42 -156 -16 -94 -56 59 -113
100 -202 144 -183 93 -434 99 -633 15 -126 -53 -255 -157 -319 -255 -17 -27
-35 -49 -39 -49 -4 0 -22 27 -40 61 -69 133 -146 211 -262 264 -111 51 -166
57 -528 61 -201 2 -344 0 -358 -6z"/>
<path d="M2918 3943 c7 -3 16 -2 19 1 4 3 -2 6 -13 5 -11 0 -14 -3 -6 -6z"/>
<path d="M2840 3820 c8 -5 20 -10 25 -10 6 0 3 5 -5 10 -8 5 -19 10 -25 10 -5
0 -3 -5 5 -10z"/>
<path d="M3648 3718 c5 -5 16 -8 23 -6 8 3 3 7 -10 11 -17 4 -21 3 -13 -5z"/>
<path d="M2336 3697 c3 -10 9 -15 12 -12 3 3 0 11 -7 18 -10 9 -11 8 -5 -6z"/>
<path d="M1271 3664 c0 -11 3 -14 6 -6 3 7 2 16 -1 19 -3 4 -6 -2 -5 -13z"/>
<path d="M1777 3559 c-47 -8 -69 -28 -70 -65 -1 -16 -6 -32 -11 -36 -6 -4 -5
-12 3 -21 7 -9 8 -16 2 -19 -6 -2 -6 -19 0 -50 9 -41 14 -48 51 -62 32 -14 50
-15 94 -7 53 10 104 35 104 52 0 5 6 6 14 3 10 -4 12 2 9 20 -3 15 -1 26 5 26
7 0 7 11 1 35 -6 19 -8 39 -6 43 3 4 -1 13 -9 20 -8 7 -14 10 -14 7 0 -5 -28
17 -55 42 -16 15 -69 21 -118 12z m113 -37 c21 -10 42 -32 54 -55 16 -34 17
-42 4 -75 -18 -49 -64 -72 -145 -72 l-62 0 -8 38 c-4 20 -8 63 -8 95 0 47 4
62 19 73 27 19 104 18 146 -4z"/>
<path d="M3375 3550 c-3 -5 -1 -10 4 -10 6 0 11 5 11 10 0 6 -2 10 -4 10 -3 0
-8 -4 -11 -10z"/>
<path d="M3005 3533 c-22 -8 -48 -15 -57 -16 -9 -1 -14 -6 -11 -11 4 -5 -1 -7
-11 -3 -9 4 -15 3 -11 -2 3 -6 -2 -14 -10 -19 -9 -5 -25 -22 -36 -38 -10 -16
-19 -24 -19 -17 0 6 -9 11 -19 10 -11 0 -17 -5 -15 -9 3 -5 10 -6 15 -3 5 4 9
-6 9 -21 0 -20 -3 -24 -12 -16 -10 8 -14 0 -16 -31 -7 -81 -7 -162 0 -200 5
-26 3 -35 -4 -31 -7 4 -8 2 -4 -4 4 -6 13 -9 21 -5 8 3 15 0 15 -7 0 -7 11
-28 25 -45 13 -18 21 -36 17 -40 -4 -3 -2 -5 3 -3 15 4 56 -27 47 -37 -4 -4 1
-5 10 -2 10 4 17 2 15 -5 -5 -24 162 -36 223 -15 50 17 110 47 96 47 -6 0 -1
6 9 14 11 8 23 12 27 10 5 -3 8 2 8 10 0 16 15 22 23 9 2 -5 2 -2 1 4 -2 7 1
23 6 35 5 13 9 19 10 13 3 -22 33 93 35 138 3 50 -27 154 -51 173 -8 6 -11 13
-8 17 3 3 -9 13 -26 23 -16 10 -28 24 -26 31 3 7 2 12 -2 12 -24 -4 -42 2 -36
13 4 7 3 8 -5 4 -6 -4 -26 0 -44 10 -43 23 -142 26 -192 7z m227 -47 c91 -52
137 -132 138 -236 0 -111 -58 -203 -159 -251 -63 -30 -179 -31 -236 -2 -55 29
-94 69 -121 127 -75 162 -6 334 156 387 14 5 59 7 100 5 59 -3 85 -9 122 -30z"/>
<path d="M3012 3370 c-62 -38 -81 -138 -39 -201 81 -121 270 -63 270 82 0 109
-134 178 -231 119z m167 -31 c17 -13 33 -32 35 -44 7 -39 4 -80 -6 -92 -6 -7
-8 -13 -4 -13 3 0 -2 -8 -11 -18 -10 -10 -23 -17 -29 -15 -6 2 -19 -3 -28 -12
-20 -20 -120 -19 -112 1 3 9 -1 11 -11 7 -13 -5 -15 -2 -10 11 4 9 3 15 -2 11
-5 -3 -15 11 -21 30 -12 37 -5 95 11 95 6 0 7 5 4 11 -8 12 24 51 36 44 4 -3
10 -1 14 4 11 18 101 5 134 -20z m-19 -199 c0 -5 -5 -10 -11 -10 -5 0 -7 5 -4
10 3 6 8 10 11 10 2 0 4 -4 4 -10z"/>
<path d="M3020 3341 c0 -6 4 -13 10 -16 6 -3 7 1 4 9 -7 18 -14 21 -14 7z"/>
<path d="M1980 3461 c0 -6 4 -13 10 -16 6 -3 7 1 4 9 -7 18 -14 21 -14 7z"/>
<path d="M2701 3294 c0 -11 3 -14 6 -6 3 7 2 16 -1 19 -3 4 -6 -2 -5 -13z"/>
<path d="M2289 2973 c-13 -16 -12 -17 4 -4 9 7 17 15 17 17 0 8 -8 3 -21 -13z"/>
<path d="M1691 2854 c0 -11 3 -14 6 -6 3 7 2 16 -1 19 -3 4 -6 -2 -5 -13z"/>
<path d="M3631 2764 c0 -11 3 -14 6 -6 3 7 2 16 -1 19 -3 4 -6 -2 -5 -13z"/>
<path d="M2812 2670 c0 -14 2 -19 5 -12 2 6 2 18 0 25 -3 6 -5 1 -5 -13z"/>
<path d="M1944 2188 c-58 -15 -72 -117 -21 -153 57 -40 127 0 127 74 -1 62
-46 96 -106 79z m56 -38 c22 -22 24 -37 10 -74 -10 -28 -47 -35 -68 -14 -19
19 -15 85 6 97 24 15 29 14 52 -9z"/>
<path d="M2108 2186 c-26 -13 -36 -57 -16 -73 7 -6 27 -15 43 -20 17 -5 30
-16 30 -24 0 -18 -42 -24 -61 -8 -12 9 -18 9 -27 0 -9 -9 -9 -14 3 -22 48 -30
106 -22 116 18 9 36 -6 56 -50 66 -27 7 -36 14 -34 26 3 15 24 19 58 10 8 -2
15 2 15 10 0 20 -48 31 -77 17z"/>
<path d="M2542 2189 c-28 -11 -42 -40 -42 -87 0 -87 107 -116 146 -40 39 74
-28 155 -104 127z m59 -29 c24 -13 27 -81 4 -100 -22 -19 -64 -4 -71 25 -9 35
3 73 24 78 9 3 18 5 20 6 2 0 12 -4 23 -9z"/>
<path d="M3250 2108 c0 -80 2 -88 19 -88 16 0 18 6 14 36 -4 33 -3 35 19 32
16 -2 26 -13 33 -35 6 -22 15 -33 28 -33 14 0 17 5 12 23 -4 12 -13 32 -21 44
-11 18 -11 22 1 27 18 7 20 50 3 64 -7 5 -34 11 -60 13 l-48 4 0 -87z m74 56
c9 -3 16 -15 16 -25 0 -14 -7 -19 -30 -19 -25 0 -30 4 -30 25 0 25 13 31 44
19z"/>
<path d="M3433 2190 c-26 -10 -41 -56 -24 -73 6 -6 26 -16 43 -21 38 -13 51
-46 18 -46 -12 0 -30 5 -40 10 -26 14 -39 -9 -15 -27 30 -21 82 -17 99 10 24
35 10 64 -37 80 -22 7 -42 18 -44 24 -6 16 26 24 49 12 16 -8 22 -8 29 2 4 8
5 17 1 20 -14 12 -57 17 -79 9z"/>
<path d="M3670 2166 c0 -32 -2 -34 -40 -38 -39 -3 -40 -3 -40 29 0 25 -4 33
-17 33 -16 0 -18 -9 -15 -85 3 -65 7 -85 18 -85 10 0 14 12 14 40 l0 40 40 0
40 0 0 -40 c0 -29 4 -40 15 -40 12 0 15 16 15 84 0 65 -3 85 -15 90 -12 4 -15
-2 -15 -28z"/>
<path d="M4262 2185 c-33 -14 -42 -32 -42 -79 0 -108 142 -118 157 -11 9 71
-49 117 -115 90z m59 -25 c22 -12 27 -78 7 -98 -21 -21 -58 -14 -68 14 -14 37
-12 52 10 74 23 23 25 23 51 10z"/>
<path d="M1248 2105 c-3 -76 -1 -85 15 -85 13 0 17 8 17 33 0 31 3 34 31 35
40 1 59 18 59 53 0 34 -23 49 -79 49 l-40 0 -3 -85z m81 51 c17 -20 3 -46 -25
-46 -20 0 -24 5 -24 30 0 23 5 30 19 30 10 0 24 -6 30 -14z"/>
<path d="M1402 2119 c4 -80 18 -99 73 -99 49 0 65 25 65 103 0 53 -3 67 -15
67 -12 0 -15 -13 -15 -57 0 -69 -9 -86 -41 -81 -22 3 -24 8 -27 71 -3 60 -5
67 -24 67 -19 0 -20 -5 -16 -71z"/>
<path d="M1585 2105 c0 -74 2 -85 18 -85 13 0 17 8 17 35 0 28 4 35 19 35 13
0 23 -11 31 -35 8 -24 18 -35 30 -35 19 0 19 1 1 44 -18 40 -18 45 -3 59 13
13 13 21 4 42 -10 22 -18 25 -64 25 l-53 0 0 -85z m82 54 c17 -17 4 -39 -23
-39 -19 0 -24 5 -24 25 0 27 26 35 47 14z"/>
<path d="M1743 2105 c-2 -78 0 -85 18 -85 15 0 19 7 19 33 0 31 3 34 32 35 51
1 76 52 42 86 -10 10 -33 16 -62 16 l-47 0 -2 -85z m78 55 c15 -9 17 -15 9
-30 -6 -11 -20 -20 -30 -20 -16 0 -20 7 -20 30 0 32 9 36 41 20z"/>
<path d="M2230 2105 l0 -85 60 0 c47 0 60 3 60 15 0 11 -11 15 -40 15 -36 0
-40 2 -40 26 0 24 3 26 35 22 27 -3 35 0 35 12 0 12 -8 15 -35 12 -32 -4 -35
-2 -35 21 0 24 3 25 40 20 33 -5 40 -3 40 11 0 13 -11 16 -60 16 l-60 0 0 -85z"/>
<path d="M2694 2105 c18 -75 23 -85 43 -85 19 0 22 7 28 55 4 30 11 55 15 55
4 0 12 -25 19 -55 10 -43 17 -55 31 -55 20 0 23 7 40 85 6 28 13 58 16 68 4
12 0 17 -14 17 -17 0 -21 -9 -27 -60 -4 -33 -10 -60 -14 -60 -4 0 -13 27 -19
60 -10 47 -17 60 -31 60 -15 0 -21 -10 -26 -48 -10 -74 -20 -78 -33 -12 -10
46 -17 60 -30 60 -16 0 -16 -5 2 -85z"/>
<path d="M2920 2105 c0 -71 3 -85 16 -85 12 0 15 11 13 55 -2 36 2 60 11 68
10 9 11 9 6 0 -10 -19 55 -123 76 -123 16 0 18 10 18 85 0 68 -3 85 -15 85
-10 0 -15 -15 -17 -57 l-3 -58 -33 58 c-23 38 -40 57 -53 57 -17 0 -19 -8 -19
-85z"/>
<path d="M3101 2105 l1 -85 59 0 c46 0 59 3 59 15 0 11 -11 15 -40 15 -36 0
-40 2 -40 26 0 23 3 25 33 22 23 -2 32 1 32 12 0 11 -9 14 -32 12 -29 -3 -33
-1 -33 20 0 21 4 23 40 20 32 -3 40 -1 40 12 0 13 -12 16 -60 16 l-61 0 2 -85z"/>
<path d="M3745 2105 c0 -74 2 -85 18 -85 15 0 17 11 17 85 0 74 -2 85 -17 85
-16 0 -18 -11 -18 -85z"/>
<path d="M3824 2105 c-1 -77 0 -85 17 -85 15 0 19 7 19 34 0 32 2 35 30 34 37
-1 60 17 60 48 0 36 -26 54 -78 54 l-47 0 -1 -85z m83 54 c19 -19 3 -49 -26
-49 -22 0 -26 4 -26 30 0 24 4 30 21 30 11 0 25 -5 31 -11z"/>
<path d="M4079 2108 c21 -64 32 -84 48 -86 17 -3 25 10 50 82 28 79 28 86 12
86 -14 0 -23 -15 -36 -60 -10 -33 -21 -60 -24 -60 -4 0 -14 27 -23 60 -13 46
-21 60 -36 60 -18 0 -17 -5 9 -82z"/>
<path d="M4410 2105 c0 -78 2 -85 20 -85 18 0 20 7 20 85 0 78 -2 85 -20 85
-18 0 -20 -7 -20 -85z"/>
<path d="M4507 2173 c-36 -41 -29 -121 14 -143 30 -16 75 -11 94 10 15 16 16
23 6 33 -10 9 -14 8 -22 -5 -11 -21 -49 -24 -67 -6 -7 7 -12 29 -12 50 0 47
29 68 64 45 31 -21 60 -4 32 18 -27 21 -89 19 -109 -2z"/>
<path d="M4660 2105 l0 -85 60 0 c47 0 60 3 60 15 0 11 -12 15 -45 15 -42 0
-45 2 -45 26 0 23 3 25 38 22 28 -2 37 1 37 12 0 11 -10 14 -38 12 -35 -3 -38
-2 -35 19 2 19 9 23 42 23 22 1 41 7 43 14 4 9 -12 12 -56 12 l-61 0 0 -85z"/>
<path d="M2377 2053 c-3 -5 -2 -15 3 -22 10 -17 43 -6 38 12 -6 15 -34 22 -41
10z"/>
<path d="M3940 2040 c0 -15 5 -20 18 -18 9 2 17 10 17 18 0 8 -8 16 -17 18
-13 2 -18 -3 -18 -18z"/>
<path d="M4807 2054 c-14 -15 -6 -34 14 -34 14 0 19 5 17 17 -3 18 -20 27 -31
17z"/>
<path d="M1360 2036 c0 -2 8 -10 18 -17 15 -13 16 -12 3 4 -13 16 -21 21 -21
13z"/>
</g>
</svg>
